<svg xmlns="http://www.w3.org/2000/svg" viewBox="0 0 800 400" fill="none">
  <rect width="800" height="400" rx="12" fill="#fafafa"/>
  <rect x="24" y="24" width="752" height="352" rx="8" fill="white" stroke="#e5e5e5"/>
  <text x="44" y="56" font-family="system-ui,sans-serif" font-size="13" font-weight="600" fill="#171717">Approval Workflow — Human Checkpoints</text>
  <!-- Stage pipeline -->
  <text x="44" y="90" font-family="system-ui,sans-serif" font-size="10" font-weight="600" fill="#a3a3a3">WORKFLOW STAGES</text>
  <!-- Stage 1: Draft -->
  <rect x="44" y="104" width="160" height="80" rx="10" fill="#65a30d" fill-opacity="0.08" stroke="#65a30d" stroke-opacity="0.3"/>
  <rect x="56" y="116" width="28" height="28" rx="14" fill="#65a30d" fill-opacity="0.15"/>
  <text x="64" y="134" font-family="system-ui,sans-serif" font-size="12" font-weight="700" fill="#65a30d">1</text>
  <text x="92" y="128" font-family="system-ui,sans-serif" font-size="12" font-weight="600" fill="#365314">Draft</text>
  <text x="56" y="152" font-family="system-ui,sans-serif" font-size="9" fill="#737373">AI prepares the initial</text>
  <text x="56" y="164" font-family="system-ui,sans-serif" font-size="9" fill="#737373">work output</text>
  <rect x="56" y="170" width="32" height="4" rx="2" fill="#65a30d"/>
  <!-- Arrow -->
  <path d="M212 144 L236 144" stroke="#d4d4d4" stroke-width="1.5" marker-end="url(#arw2)"/>
  <!-- Stage 2: Review -->
  <rect x="244" y="104" width="160" height="80" rx="10" fill="#3b82f6" fill-opacity="0.08" stroke="#3b82f6" stroke-opacity="0.3"/>
  <rect x="256" y="116" width="28" height="28" rx="14" fill="#3b82f6" fill-opacity="0.15"/>
  <text x="264" y="134" font-family="system-ui,sans-serif" font-size="12" font-weight="700" fill="#3b82f6">2</text>
  <text x="292" y="128" font-family="system-ui,sans-serif" font-size="12" font-weight="600" fill="#1e40af">Review</text>
  <text x="256" y="152" font-family="system-ui,sans-serif" font-size="9" fill="#737373">Team member reviews</text>
  <text x="256" y="164" font-family="system-ui,sans-serif" font-size="9" fill="#737373">and provides feedback</text>
  <rect x="256" y="170" width="32" height="4" rx="2" fill="#3b82f6"/>
  <path d="M412 144 L436 144" stroke="#d4d4d4" stroke-width="1.5" marker-end="url(#arw2)"/>
  <!-- Stage 3: Approve -->
  <rect x="444" y="104" width="160" height="80" rx="10" fill="#8b5cf6" fill-opacity="0.08" stroke="#8b5cf6" stroke-opacity="0.3"/>
  <rect x="456" y="116" width="28" height="28" rx="14" fill="#8b5cf6" fill-opacity="0.15"/>
  <text x="464" y="134" font-family="system-ui,sans-serif" font-size="12" font-weight="700" fill="#8b5cf6">3</text>
  <text x="492" y="128" font-family="system-ui,sans-serif" font-size="12" font-weight="600" fill="#5b21b6">Approve</text>
  <text x="456" y="152" font-family="system-ui,sans-serif" font-size="9" fill="#737373">Manager signs off on</text>
  <text x="456" y="164" font-family="system-ui,sans-serif" font-size="9" fill="#737373">the deliverable</text>
  <rect x="456" y="170" width="32" height="4" rx="2" fill="#8b5cf6"/>
  <path d="M612 144 L636 144" stroke="#d4d4d4" stroke-width="1.5" marker-end="url(#arw2)"/>
  <!-- Stage 4: Deliver -->
  <rect x="644" y="104" width="120" height="80" rx="10" fill="#065f46" fill-opacity="0.08" stroke="#065f46" stroke-opacity="0.3"/>
  <rect x="656" y="116" width="28" height="28" rx="14" fill="#065f46" fill-opacity="0.15"/>
  <text x="664" y="134" font-family="system-ui,sans-serif" font-size="12" font-weight="700" fill="#065f46">4</text>
  <text x="692" y="128" font-family="system-ui,sans-serif" font-size="12" font-weight="600" fill="#065f46">Deliver</text>
  <text x="656" y="152" font-family="system-ui,sans-serif" font-size="9" fill="#737373">Completed and</text>
  <text x="656" y="164" font-family="system-ui,sans-serif" font-size="9" fill="#737373">handed off</text>
  <rect x="656" y="170" width="32" height="4" rx="2" fill="#065f46"/>
  <!-- Example items in pipeline -->
  <rect x="44" y="204" width="712" height="1" fill="#e5e5e5"/>
  <text x="44" y="232" font-family="system-ui,sans-serif" font-size="10" font-weight="600" fill="#a3a3a3">ACTIVE ITEMS</text>
  <!-- Item 1 -->
  <rect x="44" y="244" width="712" height="44" rx="8" fill="#f5f5f5"/>
  <text x="60" y="264" font-family="system-ui,sans-serif" font-size="10" font-weight="500" fill="#171717">Network config documentation</text>
  <text x="60" y="278" font-family="system-ui,sans-serif" font-size="9" fill="#a3a3a3">WO-2001 · Assigned to AI Copilot</text>
  <rect x="524" y="254" width="60" height="22" rx="11" fill="#3b82f6" fill-opacity="0.1"/>
  <text x="536" y="269" font-family="system-ui,sans-serif" font-size="9" font-weight="500" fill="#3b82f6">Review</text>
  <rect x="600" y="254" width="140" height="22" rx="11" fill="white" stroke="#e5e5e5"/>
  <text x="614" y="269" font-family="system-ui,sans-serif" font-size="9" fill="#737373">Awaiting: @Sarah M.</text>
  <!-- Item 2 -->
  <rect x="44" y="296" width="712" height="44" rx="8" fill="#f5f5f5"/>
  <text x="60" y="316" font-family="system-ui,sans-serif" font-size="10" font-weight="500" fill="#171717">Monthly client status report</text>
  <text x="60" y="330" font-family="system-ui,sans-serif" font-size="9" fill="#a3a3a3">WO-1042 · Drafted by Comms Agent</text>
  <rect x="524" y="306" width="60" height="22" rx="11" fill="#8b5cf6" fill-opacity="0.1"/>
  <text x="533" y="321" font-family="system-ui,sans-serif" font-size="9" font-weight="500" fill="#8b5cf6">Approve</text>
  <rect x="600" y="306" width="140" height="22" rx="11" fill="white" stroke="#e5e5e5"/>
  <text x="614" y="321" font-family="system-ui,sans-serif" font-size="9" fill="#737373">Awaiting: @James L.</text>
  <!-- Item 3 -->
  <rect x="44" y="348" width="712" height="20" rx="8" fill="white"/>
  <text x="60" y="362" font-family="system-ui,sans-serif" font-size="10" font-weight="500" fill="#a3a3a3">Server backup verification checklist</text>
  <rect x="524" y="350" width="60" height="16" rx="8" fill="#65a30d" fill-opacity="0.1"/>
  <text x="540" y="362" font-family="system-ui,sans-serif" font-size="9" font-weight="500" fill="#65a30d">Draft</text>
  <defs><marker id="arw2" viewBox="0 0 6 6" refX="6" refY="3" markerWidth="6" markerHeight="6" orient="auto"><path d="M0 0 L6 3 L0 6z" fill="#d4d4d4"/></marker></defs>
</svg>
