<svg xmlns="http://www.w3.org/2000/svg" viewBox="0 0 800 400" fill="none">
  <rect width="800" height="400" rx="12" fill="#fafafa"/>
  <rect x="24" y="24" width="752" height="352" rx="8" fill="white" stroke="#e5e5e5"/>
  <text x="44" y="56" font-family="system-ui,sans-serif" font-size="13" font-weight="600" fill="#171717">Dispatcher Agent — Request Triage</text>
  <!-- Incoming requests -->
  <text x="44" y="88" font-family="system-ui,sans-serif" font-size="10" font-weight="600" fill="#a3a3a3">INCOMING</text>
  <rect x="44" y="98" width="180" height="52" rx="8" fill="#fef3c7" stroke="#f59e0b" stroke-opacity="0.3"/>
  <text x="58" y="118" font-family="system-ui,sans-serif" font-size="9" fill="#92400e">Email</text>
  <text x="58" y="134" font-family="system-ui,sans-serif" font-size="10" font-weight="500" fill="#171717">"Fix printer on 3rd floor"</text>
  <rect x="44" y="160" width="180" height="52" rx="8" fill="#dbeafe" stroke="#3b82f6" stroke-opacity="0.3"/>
  <text x="58" y="180" font-family="system-ui,sans-serif" font-size="9" fill="#1e40af">Slack</text>
  <text x="58" y="196" font-family="system-ui,sans-serif" font-size="10" font-weight="500" fill="#171717">"Need VPN access for new hire"</text>
  <rect x="44" y="222" width="180" height="52" rx="8" fill="#f3e8ff" stroke="#8b5cf6" stroke-opacity="0.3"/>
  <text x="58" y="242" font-family="system-ui,sans-serif" font-size="9" fill="#5b21b6">Form</text>
  <text x="58" y="258" font-family="system-ui,sans-serif" font-size="10" font-weight="500" fill="#171717">"Server room AC not working"</text>
  <!-- Arrow to dispatcher -->
  <path d="M232 175 L278 175" stroke="#d4d4d4" stroke-width="1.5" marker-end="url(#arw)"/>
  <!-- Dispatcher box -->
  <rect x="286" y="108" width="160" height="136" rx="12" fill="#65a30d" fill-opacity="0.06" stroke="#65a30d" stroke-opacity="0.25"/>
  <circle cx="366" cy="148" r="20" fill="#65a30d" fill-opacity="0.15"/>
  <text x="356" y="152" font-family="system-ui,sans-serif" font-size="12" font-weight="700" fill="#65a30d">AI</text>
  <text x="318" y="186" font-family="system-ui,sans-serif" font-size="11" font-weight="600" fill="#365314">Dispatcher</text>
  <text x="316" y="204" font-family="system-ui,sans-serif" font-size="9" fill="#737373">Extracts scope</text>
  <text x="316" y="218" font-family="system-ui,sans-serif" font-size="9" fill="#737373">Sets urgency</text>
  <text x="316" y="232" font-family="system-ui,sans-serif" font-size="9" fill="#737373">Routes to owner</text>
  <!-- Arrows out -->
  <path d="M454 145 L498 115" stroke="#d4d4d4" stroke-width="1.5" marker-end="url(#arw)"/>
  <path d="M454 175 L498 175" stroke="#d4d4d4" stroke-width="1.5" marker-end="url(#arw)"/>
  <path d="M454 205 L498 235" stroke="#d4d4d4" stroke-width="1.5" marker-end="url(#arw)"/>
  <!-- Output work orders -->
  <rect x="506" y="88" width="256" height="62" rx="8" fill="white" stroke="#e5e5e5"/>
  <rect x="506" y="88" width="4" height="62" rx="2" fill="#ef4444"/>
  <text x="522" y="108" font-family="system-ui,sans-serif" font-size="9" font-weight="600" fill="#ef4444">URGENT</text>
  <text x="522" y="124" font-family="system-ui,sans-serif" font-size="10" font-weight="500" fill="#171717">WO-2001: Printer repair — Floor 3</text>
  <text x="522" y="140" font-family="system-ui,sans-serif" font-size="9" fill="#a3a3a3">Assigned to: Mike T. (Facilities)</text>
  <rect x="506" y="160" width="256" height="62" rx="8" fill="white" stroke="#e5e5e5"/>
  <rect x="506" y="160" width="4" height="62" rx="2" fill="#f59e0b"/>
  <text x="522" y="180" font-family="system-ui,sans-serif" font-size="9" font-weight="600" fill="#f59e0b">NORMAL</text>
  <text x="522" y="196" font-family="system-ui,sans-serif" font-size="10" font-weight="500" fill="#171717">WO-2002: VPN setup — New hire</text>
  <text x="522" y="212" font-family="system-ui,sans-serif" font-size="9" fill="#a3a3a3">Assigned to: Lisa K. (IT Support)</text>
  <rect x="506" y="232" width="256" height="62" rx="8" fill="white" stroke="#e5e5e5"/>
  <rect x="506" y="232" width="4" height="62" rx="2" fill="#ef4444"/>
  <text x="522" y="252" font-family="system-ui,sans-serif" font-size="9" font-weight="600" fill="#ef4444">URGENT</text>
  <text x="522" y="268" font-family="system-ui,sans-serif" font-size="10" font-weight="500" fill="#171717">WO-2003: AC repair — Server room</text>
  <text x="522" y="284" font-family="system-ui,sans-serif" font-size="9" fill="#a3a3a3">Assigned to: Mike T. (Facilities)</text>
  <!-- Labels -->
  <text x="506" y="324" font-family="system-ui,sans-serif" font-size="10" font-weight="600" fill="#a3a3a3">STRUCTURED WORK ORDERS</text>
  <rect x="44" y="310" width="180" height="52" rx="8" fill="#fef2f2" stroke="#ef4444" stroke-opacity="0.2"/>
  <text x="58" y="330" font-family="system-ui,sans-serif" font-size="9" fill="#991b1b">Walk-up</text>
  <text x="58" y="346" font-family="system-ui,sans-serif" font-size="10" font-weight="500" fill="#171717">"WiFi is down in conf room B"</text>
  <defs><marker id="arw" viewBox="0 0 6 6" refX="6" refY="3" markerWidth="6" markerHeight="6" orient="auto"><path d="M0 0 L6 3 L0 6z" fill="#d4d4d4"/></marker></defs>
</svg>
