<svg xmlns="http://www.w3.org/2000/svg" viewBox="0 0 800 400" fill="none">
  <rect width="800" height="400" rx="12" fill="#fafafa"/>
  <rect x="24" y="24" width="752" height="352" rx="8" fill="white" stroke="#e5e5e5"/>
  <text x="44" y="56" font-family="system-ui,sans-serif" font-size="13" font-weight="600" fill="#171717">SOP Library</text>
  <text x="44" y="74" font-family="system-ui,sans-serif" font-size="10" fill="#a3a3a3">Reusable playbooks for consistent delivery</text>
  <!-- Playbook cards -->
  <rect x="44" y="92" width="228" height="120" rx="8" fill="white" stroke="#65a30d" stroke-opacity="0.4"/>
  <rect x="44" y="92" width="228" height="4" rx="2" fill="#65a30d"/>
  <text x="60" y="120" font-family="system-ui,sans-serif" font-size="11" font-weight="600" fill="#171717">IT Infrastructure Audit</text>
  <text x="60" y="138" font-family="system-ui,sans-serif" font-size="9" fill="#737373">18 steps across 4 phases</text>
  <rect x="60" y="150" width="44" height="18" rx="9" fill="#65a30d" fill-opacity="0.1"/>
  <text x="68" y="163" font-family="system-ui,sans-serif" font-size="8" fill="#65a30d">Active</text>
  <text x="60" y="196" font-family="system-ui,sans-serif" font-size="9" fill="#a3a3a3">Used 47 times</text>
  <rect x="286" y="92" width="228" height="120" rx="8" fill="white" stroke="#e5e5e5"/>
  <rect x="286" y="92" width="228" height="4" rx="2" fill="#3b82f6"/>
  <text x="302" y="120" font-family="system-ui,sans-serif" font-size="11" font-weight="600" fill="#171717">Cloud Migration</text>
  <text x="302" y="138" font-family="system-ui,sans-serif" font-size="9" fill="#737373">24 steps across 6 phases</text>
  <rect x="302" y="150" width="44" height="18" rx="9" fill="#3b82f6" fill-opacity="0.1"/>
  <text x="310" y="163" font-family="system-ui,sans-serif" font-size="8" fill="#3b82f6">Active</text>
  <text x="302" y="196" font-family="system-ui,sans-serif" font-size="9" fill="#a3a3a3">Used 31 times</text>
  <rect x="528" y="92" width="228" height="120" rx="8" fill="white" stroke="#e5e5e5"/>
  <rect x="528" y="92" width="228" height="4" rx="2" fill="#8b5cf6"/>
  <text x="544" y="120" font-family="system-ui,sans-serif" font-size="11" font-weight="600" fill="#171717">Security Assessment</text>
  <text x="544" y="138" font-family="system-ui,sans-serif" font-size="9" fill="#737373">15 steps across 3 phases</text>
  <rect x="544" y="150" width="44" height="18" rx="9" fill="#8b5cf6" fill-opacity="0.1"/>
  <text x="552" y="163" font-family="system-ui,sans-serif" font-size="8" fill="#8b5cf6">Active</text>
  <text x="544" y="196" font-family="system-ui,sans-serif" font-size="9" fill="#a3a3a3">Used 23 times</text>
  <!-- Bottom section: knowledge capture -->
  <rect x="44" y="228" width="712" height="1" fill="#e5e5e5"/>
  <text x="44" y="260" font-family="system-ui,sans-serif" font-size="11" font-weight="600" fill="#525252">Knowledge captured from your team</text>
  <rect x="44" y="276" width="228" height="80" rx="8" fill="#f5f5f5"/>
  <text x="60" y="298" font-family="system-ui,sans-serif" font-size="10" font-weight="500" fill="#171717">Troubleshooting steps</text>
  <text x="60" y="314" font-family="system-ui,sans-serif" font-size="9" fill="#737373">Extracted from 12 resolved</text>
  <text x="60" y="328" font-family="system-ui,sans-serif" font-size="9" fill="#737373">tickets by Senior Engineer</text>
  <rect x="60" y="338" width="100" height="6" rx="3" fill="#e5e5e5"/>
  <rect x="60" y="338" width="80" height="6" rx="3" fill="#65a30d"/>
  <rect x="286" y="276" width="228" height="80" rx="8" fill="#f5f5f5"/>
  <text x="302" y="298" font-family="system-ui,sans-serif" font-size="10" font-weight="500" fill="#171717">Client onboarding flow</text>
  <text x="302" y="314" font-family="system-ui,sans-serif" font-size="9" fill="#737373">Documented by Account</text>
  <text x="302" y="328" font-family="system-ui,sans-serif" font-size="9" fill="#737373">Manager, 8 steps</text>
  <rect x="302" y="338" width="100" height="6" rx="3" fill="#e5e5e5"/>
  <rect x="302" y="338" width="100" height="6" rx="3" fill="#65a30d"/>
  <rect x="528" y="276" width="228" height="80" rx="8" fill="#f5f5f5"/>
  <text x="544" y="298" font-family="system-ui,sans-serif" font-size="10" font-weight="500" fill="#171717">Escalation procedures</text>
  <text x="544" y="314" font-family="system-ui,sans-serif" font-size="9" fill="#737373">Defined by Ops Lead,</text>
  <text x="544" y="328" font-family="system-ui,sans-serif" font-size="9" fill="#737373">3 severity levels</text>
  <rect x="544" y="338" width="100" height="6" rx="3" fill="#e5e5e5"/>
  <rect x="544" y="338" width="60" height="6" rx="3" fill="#f59e0b"/>
</svg>
