<svg width="32" height="32" viewBox="0 0 32 32" fill="none" xmlns="http://www.w3.org/2000/svg">
  <!-- Background -->
  <rect width="32" height="32" rx="6" fill="#4F46E5"/>

  <!-- Human head profile silhouette -->
  <path d="M22 8C22 8 23 10 23 12C23 14 22 15 22 16C22 17 23 18 23 19C23 20 22 21 21 22C20 23 18 24 16 24C14 24 12 23 11 22C10 21 9 19 9 17C9 15 10 13 11 12C12 11 13 10 14 9C15 8 16 7 18 7C20 7 22 8 22 8Z" fill="#818CF8"/>

  <!-- Circuit nodes -->
  <circle cx="14" cy="12" r="1.5" fill="white"/>
  <circle cx="18" cy="11" r="1.5" fill="white"/>
  <circle cx="20" cy="14" r="1.5" fill="white"/>
  <circle cx="12" cy="16" r="1.5" fill="white"/>
  <circle cx="16" cy="15" r="1.5" fill="#22D3EE"/>
  <circle cx="14" cy="19" r="1.5" fill="white"/>
  <circle cx="18" cy="18" r="1.5" fill="white"/>

  <!-- Circuit connections -->
  <path d="M14 12L16 15M18 11L16 15M20 14L16 15M12 16L16 15M16 15L14 19M16 15L18 18" stroke="white" stroke-width="0.75" stroke-linecap="round"/>

  <!-- Neural glow effect -->
  <circle cx="16" cy="15" r="2.5" fill="none" stroke="#22D3EE" stroke-width="0.5" opacity="0.6"/>
</svg>
