<svg width="200" height="48" viewBox="0 0 200 48" fill="none" xmlns="http://www.w3.org/2000/svg">
  <!-- Icon background -->
  <rect width="40" height="40" rx="8" y="4" fill="#4F46E5"/>

  <!-- Human head profile silhouette -->
  <path d="M27 12C27 12 28.5 14.5 28.5 17C28.5 19.5 27 21 27 22.5C27 24 28.5 25.5 28.5 27C28.5 28.5 27 30 25.5 31.5C24 33 21.5 34.5 19 34.5C16.5 34.5 14 33 12.5 31.5C11 30 9.5 27 9.5 24C9.5 21 11 18 12.5 16.5C14 15 15.5 13.5 17 12.5C18.5 11.5 20 10.5 22.5 10.5C25 10.5 27 12 27 12Z" fill="#818CF8"/>

  <!-- Circuit nodes -->
  <circle cx="16" cy="17" r="2" fill="white"/>
  <circle cx="22" cy="15.5" r="2" fill="white"/>
  <circle cx="25" cy="20" r="2" fill="white"/>
  <circle cx="13" cy="22.5" r="2" fill="white"/>
  <circle cx="19.5" cy="21" r="2" fill="#22D3EE"/>
  <circle cx="16" cy="27" r="2" fill="white"/>
  <circle cx="22" cy="25.5" r="2" fill="white"/>

  <!-- Circuit connections -->
  <path d="M16 17L19.5 21M22 15.5L19.5 21M25 20L19.5 21M13 22.5L19.5 21M19.5 21L16 27M19.5 21L22 25.5" stroke="white" stroke-width="1" stroke-linecap="round"/>

  <!-- Neural glow effect -->
  <circle cx="19.5" cy="21" r="3.5" fill="none" stroke="#22D3EE" stroke-width="0.75" opacity="0.6"/>

  <!-- Text: laborobo -->
  <!-- l -->
  <path d="M54 12V36H58V12H54Z" fill="#1E1B4B"/>
  <!-- a -->
  <path d="M62 22C62 19.8 63.8 18 66 18H70C72.2 18 74 19.8 74 22V36H70V32H66V36H62V22ZM66 22V28H70V22H66Z" fill="#4F46E5"/>
  <!-- b -->
  <path d="M78 12V36H82V32C83.2 34.4 85.6 36 88 36C91.3 36 94 33.3 94 30V24C94 20.7 91.3 18 88 18C85.6 18 83.2 19.6 82 22V12H78ZM82 24C82 22.3 83.3 21 85 21H88C89.7 21 91 22.3 91 24V30C91 31.7 89.7 33 88 33H85C83.3 33 82 31.7 82 30V24Z" fill="#1E1B4B"/>
  <!-- o -->
  <path d="M98 24C98 20.7 100.7 18 104 18C107.3 18 110 20.7 110 24V30C110 33.3 107.3 36 104 36C100.7 36 98 33.3 98 30V24ZM101 24V30C101 31.7 102.3 33 104 33C105.7 33 107 31.7 107 30V24C107 22.3 105.7 21 104 21C102.3 21 101 22.3 101 24Z" fill="#22D3EE"/>
  <!-- r -->
  <path d="M114 18V36H118V24C118 22.3 119.3 21 121 21H124V18H121C119.3 18 118 18.6 117 19.5V18H114Z" fill="#1E1B4B"/>
  <!-- o -->
  <path d="M128 24C128 20.7 130.7 18 134 18C137.3 18 140 20.7 140 24V30C140 33.3 137.3 36 134 36C130.7 36 128 33.3 128 30V24ZM131 24V30C131 31.7 132.3 33 134 33C135.7 33 137 31.7 137 30V24C137 22.3 135.7 21 134 21C132.3 21 131 22.3 131 24Z" fill="#4F46E5"/>
  <!-- b -->
  <path d="M144 12V36H148V32C149.2 34.4 151.6 36 154 36C157.3 36 160 33.3 160 30V24C160 20.7 157.3 18 154 18C151.6 18 149.2 19.6 148 22V12H144ZM148 24C148 22.3 149.3 21 151 21H154C155.7 21 157 22.3 157 24V30C157 31.7 155.7 33 154 33H151C149.3 33 148 31.7 148 30V24Z" fill="#1E1B4B"/>
  <!-- o -->
  <path d="M164 24C164 20.7 166.7 18 170 18C173.3 18 176 20.7 176 24V30C176 33.3 173.3 36 170 36C166.7 36 164 33.3 164 30V24ZM167 24V30C167 31.7 168.3 33 170 33C171.7 33 173 31.7 173 30V24C173 22.3 171.7 21 170 21C168.3 21 167 22.3 167 24Z" fill="#22D3EE"/>
</svg>
